<svg width="900" height="220" viewBox="0 0 900 220" xmlns="http://www.w3.org/2000/svg">
  <defs>
    <linearGradient id="sky" x1="0" y1="0" x2="0" y2="1">
      <stop offset="0%" stop-color="#0d2b30"/>
      <stop offset="100%" stop-color="#1c6169"/>
    </linearGradient>
    <radialGradient id="glow" cx="50%" cy="30%" r="55%">
      <stop offset="0%" stop-color="#f0c169" stop-opacity="0.9"/>
      <stop offset="45%" stop-color="#dc9d34" stop-opacity="0.35"/>
      <stop offset="100%" stop-color="#dc9d34" stop-opacity="0"/>
    </radialGradient>
    <pattern id="dots" width="10" height="10" patternUnits="userSpaceOnUse">
      <circle cx="2.5" cy="2.5" r="1.3" fill="#dc9d34" opacity="0.35"/>
    </pattern>
    <linearGradient id="fade" x1="0" y1="0" x2="0" y2="1">
      <stop offset="0%" stop-color="#0d2b30" stop-opacity="0"/>
      <stop offset="100%" stop-color="#0d2b30" stop-opacity="0.9"/>
    </linearGradient>
    <clipPath id="tapeClip">
      <rect x="-40" y="0" width="984" height="30"/>
    </clipPath>
  </defs>

  <rect width="900" height="220" fill="url(#sky)"/>
  <circle cx="450" cy="65" r="120" fill="url(#glow)"/>
  <rect width="900" height="220" fill="url(#dots)"/>
  <rect width="900" height="220" fill="url(#fade)"/>

  <g fill="#12383e">
    <rect x="0"   y="170" width="46" height="50"/>
    <rect x="52"  y="150" width="34" height="70"/>
    <rect x="92"  y="180" width="60" height="40"/>
    <rect x="158" y="140" width="30" height="80"/>
    <rect x="194" y="165" width="50" height="55"/>
    <rect x="250" y="125" width="26" height="95"/>
    <rect x="282" y="170" width="70" height="50"/>
    <rect x="358" y="148" width="34" height="72"/>
    <rect x="398" y="180" width="44" height="40"/>
    <rect x="448" y="132" width="28" height="88"/>
    <rect x="482" y="170" width="60" height="50"/>
    <rect x="548" y="152" width="34" height="68"/>
    <rect x="588" y="178" width="50" height="42"/>
    <rect x="644" y="138" width="28" height="82"/>
    <rect x="678" y="168" width="64" height="52"/>
    <rect x="748" y="146" width="34" height="74"/>
    <rect x="788" y="180" width="52" height="40"/>
    <rect x="846" y="160" width="30" height="60"/>
    <rect x="880" y="178" width="20" height="42"/>
  </g>

  <g fill="#dc9d34" opacity="0.85">
    <rect x="60"  y="165" width="6" height="8"/>
    <rect x="60"  y="180" width="6" height="8"/>
    <rect x="100" y="192" width="6" height="8"/>
    <rect x="165" y="155" width="6" height="8"/>
    <rect x="165" y="170" width="6" height="8"/>
    <rect x="165" y="185" width="6" height="8"/>
    <rect x="290" y="185" width="6" height="8"/>
    <rect x="310" y="185" width="6" height="8"/>
    <rect x="455" y="148" width="6" height="8"/>
    <rect x="455" y="165" width="6" height="8"/>
    <rect x="555" y="168" width="6" height="8"/>
    <rect x="651" y="155" width="6" height="8"/>
    <rect x="651" y="170" width="6" height="8"/>
    <rect x="755" y="162" width="6" height="8"/>
    <rect x="755" y="178" width="6" height="8"/>
  </g>

  <!-- caution tape ribbon -->
  <g transform="rotate(-4 450 190) translate(0 176)">
    <g clip-path="url(#tapeClip)">
      <rect x="-40" y="0" width="24" height="30" fill="#dc9d34"/>
      <rect x="-16" y="0" width="24" height="30" fill="#17110c"/>
      <rect x="8" y="0" width="24" height="30" fill="#dc9d34"/>
      <rect x="32" y="0" width="24" height="30" fill="#17110c"/>
      <rect x="56" y="0" width="24" height="30" fill="#dc9d34"/>
      <rect x="80" y="0" width="24" height="30" fill="#17110c"/>
      <rect x="104" y="0" width="24" height="30" fill="#dc9d34"/>
      <rect x="128" y="0" width="24" height="30" fill="#17110c"/>
      <rect x="152" y="0" width="24" height="30" fill="#dc9d34"/>
      <rect x="176" y="0" width="24" height="30" fill="#17110c"/>
      <rect x="200" y="0" width="24" height="30" fill="#dc9d34"/>
      <rect x="224" y="0" width="24" height="30" fill="#17110c"/>
      <rect x="248" y="0" width="24" height="30" fill="#dc9d34"/>
      <rect x="272" y="0" width="24" height="30" fill="#17110c"/>
      <rect x="296" y="0" width="24" height="30" fill="#dc9d34"/>
      <rect x="320" y="0" width="24" height="30" fill="#17110c"/>
      <rect x="344" y="0" width="24" height="30" fill="#dc9d34"/>
      <rect x="368" y="0" width="24" height="30" fill="#17110c"/>
      <rect x="392" y="0" width="24" height="30" fill="#dc9d34"/>
      <rect x="416" y="0" width="24" height="30" fill="#17110c"/>
      <rect x="440" y="0" width="24" height="30" fill="#dc9d34"/>
      <rect x="464" y="0" width="24" height="30" fill="#17110c"/>
      <rect x="488" y="0" width="24" height="30" fill="#dc9d34"/>
      <rect x="512" y="0" width="24" height="30" fill="#17110c"/>
      <rect x="536" y="0" width="24" height="30" fill="#dc9d34"/>
      <rect x="560" y="0" width="24" height="30" fill="#17110c"/>
      <rect x="584" y="0" width="24" height="30" fill="#dc9d34"/>
      <rect x="608" y="0" width="24" height="30" fill="#17110c"/>
      <rect x="632" y="0" width="24" height="30" fill="#dc9d34"/>
      <rect x="656" y="0" width="24" height="30" fill="#17110c"/>
      <rect x="680" y="0" width="24" height="30" fill="#dc9d34"/>
      <rect x="704" y="0" width="24" height="30" fill="#17110c"/>
      <rect x="728" y="0" width="24" height="30" fill="#dc9d34"/>
      <rect x="752" y="0" width="24" height="30" fill="#17110c"/>
      <rect x="776" y="0" width="24" height="30" fill="#dc9d34"/>
      <rect x="800" y="0" width="24" height="30" fill="#17110c"/>
      <rect x="824" y="0" width="24" height="30" fill="#dc9d34"/>
      <rect x="848" y="0" width="24" height="30" fill="#17110c"/>
      <rect x="872" y="0" width="24" height="30" fill="#dc9d34"/>
      <rect x="896" y="0" width="24" height="30" fill="#17110c"/>
      <rect x="920" y="0" width="24" height="30" fill="#dc9d34"/>
      <rect x="944" y="0" width="24" height="30" fill="#17110c"/>
      <rect x="-40" y="9" width="984" height="12" fill="#000000" opacity="0.22"/>
    </g>
    <text x="450" y="20" text-anchor="middle"
          font-family="Arial Black, Arial, sans-serif" font-weight="900" font-size="14"
          letter-spacing="2" fill="#f3e6c8" stroke="#17110c" stroke-width="0.6">CAUTION: MERGE CONFLICTS AHEAD</text>
  </g>

  <!-- hanging hazard balls -->
  <g stroke="#4a3a1e" stroke-width="1.5" fill="none" opacity="0.9">
    <path d="M 60 0 Q 75 25 82 46"/>
    <path d="M 120 0 Q 110 40 108 70"/>
    <path d="M 820 0 Q 805 22 800 42"/>
  </g>
  <g stroke="#17110c" stroke-width="1.2">
    <circle cx="82" cy="54" r="11" fill="#dc9d34"/>
    <path d="M 71 54 A 11 11 0 0 1 93 54" fill="#17110c"/>
    <circle cx="108" cy="80" r="9" fill="#dc9d34"/>
    <path d="M 99 80 A 9 9 0 0 1 117 80" fill="#17110c"/>
    <circle cx="800" cy="50" r="10" fill="#dc9d34"/>
    <path d="M 790 50 A 10 10 0 0 1 810 50" fill="#17110c"/>
  </g>
</svg>
